# xmcd CD database file
#
# Track frame offsets:
#	187
#	22162
#	42150
#
# Disc length: 859 seconds
#
# Revision: 0
# Processed by: cddbd v1.5.1PL0 Copyright (c) Steve Scherf et al.
# Submitted via: CDex 1.51
#
DISCID=1f035903
DTITLE=安藤治彦 - 君がいないだけ
DYEAR=1900
DGENRE=JPop
TTITLE0=君がいないだけ
TTITLE1=神様は救けてくれない
TTITLE2=君がいないだけ（カラオケ)
EXTD=
EXTT0=
EXTT1=
EXTT2=
PLAYORDER=
